<mxfile host="65bd71144e">
    <diagram id="dagzyvL6qOv6g4VW3hjg" name="ページ1">
        <mxGraphModel dx="239" dy="1000" grid="1" gridSize="8" guides="1" tooltips="1" connect="1" arrows="1" fold="1" page="0" pageScale="1" pageWidth="827" pageHeight="1169" math="1" shadow="0">
            <root>
                <mxCell id="0"/>
                <mxCell id="1" parent="0"/>
                <mxCell id="240" style="edgeStyle=none;html=1;" parent="1" edge="1">
                    <mxGeometry relative="1" as="geometry">
                        <mxPoint x="216" y="392" as="targetPoint"/>
                    </mxGeometry>
                </mxCell>
                <mxCell id="328" value="" style="ellipse;whiteSpace=wrap;html=1;aspect=fixed;" vertex="1" parent="1">
                    <mxGeometry x="480" y="-128" width="32" height="32" as="geometry"/>
                </mxCell>
                <mxCell id="329" value="" style="ellipse;whiteSpace=wrap;html=1;aspect=fixed;fillColor=#000000;strokeColor=none;" vertex="1" parent="1">
                    <mxGeometry x="480" width="32" height="32" as="geometry"/>
                </mxCell>
                <mxCell id="330" value="" style="endArrow=none;html=1;strokeWidth=4;" edge="1" source="329" target="328" parent="1">
                    <mxGeometry width="50" height="50" relative="1" as="geometry">
                        <mxPoint x="648" y="24" as="sourcePoint"/>
                        <mxPoint x="648" y="-96" as="targetPoint"/>
                    </mxGeometry>
                </mxCell>
                <mxCell id="331" value="" style="ellipse;whiteSpace=wrap;html=1;aspect=fixed;fillColor=#000000;strokeColor=none;" vertex="1" parent="1">
                    <mxGeometry x="576" y="-160" width="32" height="32" as="geometry"/>
                </mxCell>
                <mxCell id="332" value="" style="endArrow=none;html=1;strokeWidth=4;exitX=1;exitY=0.5;exitDx=0;exitDy=0;" edge="1" source="328" target="331" parent="1">
                    <mxGeometry width="50" height="50" relative="1" as="geometry">
                        <mxPoint x="504" y="8" as="sourcePoint"/>
                        <mxPoint x="504" y="-88" as="targetPoint"/>
                        <Array as="points">
                            <mxPoint x="552" y="-128"/>
                        </Array>
                    </mxGeometry>
                </mxCell>
                <mxCell id="333" value="" style="ellipse;whiteSpace=wrap;html=1;aspect=fixed;fillColor=#000000;strokeColor=none;" vertex="1" parent="1">
                    <mxGeometry x="576" y="32" width="32" height="32" as="geometry"/>
                </mxCell>
                <mxCell id="334" value="" style="endArrow=none;html=1;strokeWidth=4;" edge="1" source="329" target="333" parent="1">
                    <mxGeometry width="50" height="50" relative="1" as="geometry">
                        <mxPoint x="648" y="24" as="sourcePoint"/>
                        <mxPoint x="648" y="-96" as="targetPoint"/>
                    </mxGeometry>
                </mxCell>
                <mxCell id="335" value="" style="ellipse;whiteSpace=wrap;html=1;aspect=fixed;" vertex="1" parent="1">
                    <mxGeometry x="672" y="-128" width="32" height="32" as="geometry"/>
                </mxCell>
                <mxCell id="336" value="" style="endArrow=none;html=1;strokeWidth=4;entryX=1;entryY=0.5;entryDx=0;entryDy=0;" edge="1" source="335" target="331" parent="1">
                    <mxGeometry width="50" height="50" relative="1" as="geometry">
                        <mxPoint x="648" y="24" as="sourcePoint"/>
                        <mxPoint x="648" y="-96" as="targetPoint"/>
                    </mxGeometry>
                </mxCell>
                <mxCell id="337" value="" style="ellipse;whiteSpace=wrap;html=1;aspect=fixed;fillColor=#000000;strokeColor=none;" vertex="1" parent="1">
                    <mxGeometry x="672" width="32" height="32" as="geometry"/>
                </mxCell>
                <mxCell id="338" value="" style="endArrow=none;html=1;strokeWidth=4;exitX=0;exitY=0.5;exitDx=0;exitDy=0;" edge="1" source="337" target="333" parent="1">
                    <mxGeometry width="50" height="50" relative="1" as="geometry">
                        <mxPoint x="681.1443729458194" y="-109.94225082167225" as="sourcePoint"/>
                        <mxPoint x="616" y="-136" as="targetPoint"/>
                    </mxGeometry>
                </mxCell>
                <mxCell id="339" value="" style="endArrow=none;html=1;strokeWidth=4;entryX=0.5;entryY=1;entryDx=0;entryDy=0;" edge="1" source="337" target="335" parent="1">
                    <mxGeometry width="50" height="50" relative="1" as="geometry">
                        <mxPoint x="600" y="-24" as="sourcePoint"/>
                        <mxPoint x="599.5" y="-136" as="targetPoint"/>
                    </mxGeometry>
                </mxCell>
                <mxCell id="340" value="" style="ellipse;whiteSpace=wrap;html=1;aspect=fixed;fillColor=#000000;strokeColor=#000000;fontColor=#333333;" vertex="1" parent="1">
                    <mxGeometry x="576" y="-64" width="32" height="32" as="geometry"/>
                </mxCell>
                <mxCell id="345" value="" style="endArrow=none;html=1;strokeColor=#000000;strokeWidth=4;entryX=1;entryY=1;entryDx=0;entryDy=0;" edge="1" parent="1" source="337" target="340">
                    <mxGeometry width="50" height="50" relative="1" as="geometry">
                        <mxPoint x="552" y="-168" as="sourcePoint"/>
                        <mxPoint x="552" y="-288" as="targetPoint"/>
                    </mxGeometry>
                </mxCell>
                <mxCell id="347" value="" style="ellipse;whiteSpace=wrap;html=1;aspect=fixed;fillColor=#000000;strokeColor=none;" vertex="1" parent="1">
                    <mxGeometry x="576" y="32" width="32" height="32" as="geometry"/>
                </mxCell>
                <mxCell id="348" value="" style="ellipse;whiteSpace=wrap;html=1;aspect=fixed;fillColor=#000000;strokeColor=none;" vertex="1" parent="1">
                    <mxGeometry x="480" width="32" height="32" as="geometry"/>
                </mxCell>
                <mxCell id="349" value="" style="ellipse;whiteSpace=wrap;html=1;aspect=fixed;" vertex="1" parent="1">
                    <mxGeometry x="576" y="32" width="32" height="32" as="geometry"/>
                </mxCell>
                <mxCell id="350" value="" style="ellipse;whiteSpace=wrap;html=1;aspect=fixed;" vertex="1" parent="1">
                    <mxGeometry x="480" width="32" height="32" as="geometry"/>
                </mxCell>
                <mxCell id="351" value="" style="ellipse;whiteSpace=wrap;html=1;aspect=fixed;" vertex="1" parent="1">
                    <mxGeometry x="576" y="-160" width="32" height="32" as="geometry"/>
                </mxCell>
                <mxCell id="352" value="" style="ellipse;whiteSpace=wrap;html=1;aspect=fixed;" vertex="1" parent="1">
                    <mxGeometry x="576" y="-64" width="32" height="32" as="geometry"/>
                </mxCell>
            </root>
        </mxGraphModel>
    </diagram>
</mxfile>
